<mxfile host="app.diagrams.net" modified="2024-05-23T07:26:09.844Z" agent="Mozilla/5.0 (Windows NT 10.0; Win64; x64) AppleWebKit/537.36 (KHTML, like Gecko) Chrome/124.0.0.0 Safari/537.36" version="24.4.6" etag="9g0mjvwEgFcTYUjvZ8sL" type="github">
  <diagram name="第 1 页" id="T288CisjCzNDj9wK8ktS">
    <mxGraphModel>
      <root>
        <mxCell id="0" />
        <mxCell id="1" parent="0" />
      </root>
    </mxGraphModel>
  </diagram>
</mxfile>
